# xmcd
#
# Track frame offsets: 
#        150
#        20069
#        37048
#        52254
#        70929
#        85735
#        103793
#        120961
#        138708
#        151974
#
# Disc length: 2259 seconds
#
# Revision: 0
# Processed by: cddbd v1.5.1PL2 Copyright (c) Steve Scherf et al.
# Submitted via: ExactAudioCopy v0.95b4
#
DISCID=8a08d10a
DTITLE=แอนนา  อริสา - หล่อ'นใจ
DYEAR=1900
DGENRE=Country
TTITLE0=หล่อ'นใจ
TTITLE1=ลางสังหรณ์
TTITLE2=ฮักคนเว้าใต้
TTITLE3=ทั้งเบิ่งทั้งมอง
TTITLE4=สาวแหล่'นหลอก
TTITLE5=แฟ้มดำช้ำรัก
TTITLE6=เข้ามาเกะกะ
TTITLE7=อ้ายเว้าบ่จริง
TTITLE8=ขอยาดมหน่อยเพ่
TTITLE9=ปริญญาล้างรถ
EXTD=
EXTT0=
EXTT1=
EXTT2=
EXTT3=
EXTT4=
EXTT5=
EXTT6=
EXTT7=
EXTT8=
EXTT9=
PLAYORDER=
